C:\Users\movea\Dropbox\PhDWork\ExperimentalData\subject2\100\P2S100W02_filtered35.mot
nRows=8
nColumns=28

name C:\Users\movea\Dropbox\PhDWork\ExperimentalData\subject2\100\P2S100W02_filtered35.mot
datacolumns 28
datarows 8
range 1.3050000000 1.3120000000
endheader
time	ground_force_1_vx	ground_force_1_vy	ground_force_1_vz	ground_force_1_px	ground_force_1_py	ground_force_1_pz	ground_moment_1_mx	ground_moment_1_my	ground_moment_1_mz	ground_force_2_vx	ground_force_2_vy	ground_force_2_vz	ground_force_2_px	ground_force_2_py	ground_force_2_pz	ground_moment_2_mx	ground_moment_2_my	ground_moment_2_mz	ground_force_3_vx	ground_force_3_vy	ground_force_3_vz	ground_force_3_px	ground_force_3_py	ground_force_3_pz	ground_moment_3_mx	ground_moment_3_my	ground_moment_3_mz
        1.3050000000	       45.1136999154	      506.1228237838	       97.1324003835	        0.1988394961	        0.0000558755	       -0.3004071324	       34.3746909518	      -13.8435723943	       30.2063380038	        7.7499367163	      396.9248866208	     -128.7222731735	        0.2029003516	       -0.0000795827	        0.4543649445	       78.2549839165	       -3.3654259279	      -12.7745596291	        0.0000000000	        0.0000000000	        0.0000000000	        0.2076431971	        0.0000770316	        1.3583900146	       -0.0000000000	       -0.0000000000	       -0.0000000000	
        1.3060000000	       43.9263226187	      510.0592456705	       97.9818558282	        0.1988394961	        0.0000558755	       -0.3004071324	       34.8724213667	      -13.8975370936	       30.5556042284	        7.2512693799	      386.7360667183	     -126.7612498383	        0.2029003516	       -0.0000795827	        0.4543649445	       76.4926342336	       -3.2320597863	      -12.4306142936	        0.0000000000	        0.0000000000	        0.0000000000	        0.2076431971	        0.0000770316	        1.3583900146	       -0.0000000000	       -0.0000000000	       -0.0000000000	
        1.3070000000	       42.6568617732	      513.2091649848	       98.6027059117	        0.1988394961	        0.0000558755	       -0.3004071324	       35.3195359042	      -13.9154009649	       30.8582459337	        6.7503097781	      376.4836527839	     -124.7069581777	        0.2029003516	       -0.0000795827	        0.4543649445	       74.7134854484	       -3.0981905480	      -12.0843172503	        0.0000000000	        0.0000000000	        0.0000000000	        0.2076431971	        0.0000770316	        1.3583900146	       -0.0000000000	       -0.0000000000	       -0.0000000000	
        1.3080000000	       41.3059129542	      515.6120940182	       98.9914035862	        0.1988394961	        0.0000558755	       -0.3004071324	       35.7179509534	      -13.8964032992	       31.1167447206	        6.2437174649	      366.1880259277	     -122.5529791578	        0.2029003516	       -0.0000795827	        0.4543649445	       72.9210720146	       -2.9630264877	      -11.7357043603	        0.0000000000	        0.0000000000	        0.0000000000	        0.2076431971	        0.0000770316	        1.3583900146	       -0.0000000000	       -0.0000000000	       -0.0000000000	
        1.3090000000	       39.8737086612	      517.3241774248	       99.1541892969	        0.1988394961	        0.0000558755	       -0.3004071324	       36.0708906435	      -13.8409473403	       31.3350190628	        5.7283659008	      355.8699453388	     -120.2932232226	        0.2029003516	       -0.0000795827	        0.4543649445	       71.1190898762	       -2.8257866266	      -11.3850037014	        0.0000000000	        0.0000000000	        0.0000000000	        0.2076431971	        0.0000770316	        1.3583900146	       -0.0000000000	       -0.0000000000	       -0.0000000000	
        1.3100000000	       38.3607787992	      518.4199728033	       99.1064625282	        0.1988394961	        0.0000558755	       -0.3004071324	       36.3826956647	      -13.7505123707	       31.5183760319	        5.2019040210	      345.5506417586	     -117.9220326461	        0.2029003516	       -0.0000795827	        0.4543649445	       69.3111636452	       -2.6857800764	      -11.0326449218	        0.0000000000	        0.0000000000	        0.0000000000	        0.2076431971	        0.0000770316	        1.3583900146	       -0.0000000000	       -0.0000000000	       -0.0000000000	
        1.3110000000	       36.7688271776	      518.9898648252	       98.8726030898	        0.1988394961	        0.0000558755	       -0.3004071324	       36.6587621498	      -13.6275991033	       31.6732233919	        4.6632434395	      335.2507586500	     -115.4342222222	        0.2029003516	       -0.0000795827	        0.4543649445	       67.5010197927	       -2.5424630123	      -10.6793585262	        0.0000000000	        0.0000000000	        0.0000000000	        0.2076431971	        0.0000770316	        1.3583900146	       -0.0000000000	       -0.0000000000	       -0.0000000000	
        1.3120000000	       35.1009522251	      519.1328158417	       98.4847776444	        0.1988394961	        0.0000558755	       -0.3004071324	       36.9055705388	      -13.4755385882	       31.8066770362	        4.1126293891	      324.9890455593	     -112.8251215992	        0.2029003516	       -0.0000795827	        0.4543649445	       65.6926305802	       -2.3955718586	      -10.3262196777	        0.0000000000	        0.0000000000	        0.0000000000	        0.2076431971	        0.0000770316	        1.3583900146	       -0.0000000000	       -0.0000000000	       -0.0000000000	
